# xmcd CD database file
#
# Track frame offsets:
#	150
#	30315
#	44792
#	63377
#	84175
#	104297
#	123232
#	144077
#	161722
#
# Disc length: 2494 seconds
#
# Revision: 0
# Processed by: cddbd v1.5.1PL0 Copyright (c) Steve Scherf et al.
# Submitted via: CDex 1.51
#
DISCID=6c09bc09
DTITLE=Sergio Basbaum - Capitao Nemo e o Forro De Todos Os Santos
DYEAR=1999
DGENRE=Jazz
TTITLE0=Baiao D Todos Os Santos
TTITLE1=Cafune
TTITLE2=Rosa Margarida
TTITLE3=Capitao Nemo
TTITLE4=Canto Quieto
TTITLE5=Caleidoscopio
TTITLE6=Peiote
TTITLE7=Nostalgia
TTITLE8=Monte Verde
EXTD=YEAR: 1999
EXTT0=
EXTT1=
EXTT2=
EXTT3=
EXTT4=
EXTT5=
EXTT6=
EXTT7=
EXTT8=
PLAYORDER=
